<?xml version="1.0" standalone="no"?><!DOCTYPE svg PUBLIC "-//W3C//DTD SVG 1.1//EN" "http://www.w3.org/Graphics/SVG/1.1/DTD/svg11.dtd"><svg t="1593680485871" class="icon" viewBox="0 0 1024 1024" version="1.1" xmlns="http://www.w3.org/2000/svg" p-id="1887" xmlns:xlink="http://www.w3.org/1999/xlink" width="64" height="64"><defs><style type="text/css"></style></defs><path d="M999.301 373.243l-260.07-260.069c-6.408-6.422-15.474-10.179-24.55-10.179-19.46 0-34.935 15.706-34.935 34.511v111.895l-135.79 2.895c-19.23 0-34.5 15.703-34.5 34.704 0 19.025 15.269 34.511 34.5 34.511v0.105l170.725-0.105c19.025 0 33.28-15.486 33.28-34.511l0.115-3.767 0.885-61.921 177.135 176.479L748.962 574.71V511.892a34.153 34.153 0 0 0-34.28-34.269H343.139V365.705c0-19.219-15.486-34.705-34.28-34.705-9.513 0-18.36 3.756-24.55 10.178L24.023 601.466c-13.269 13.474-13.269 35.382 0 48.856l260.286 260.069c13.499 14.151 35.383 14.151 49.1 0 6.628-6.399 9.73-15.246 9.73-24.092V774.163h136.009c19.23 0 34.499-14.808 34.499-34.485 0-19.025-15.268-34.512-34.499-34.512H308.859c-19.46 0-34.717 15.486-34.717 34.512v63.229l-176.7-176.892 176.7-177.135v63.012c0 19.243 15.257 34.946 34.717 34.946h370.888v111.894c0 8.41 3.538 17.475 10.396 24.332 13.271 13.041 35.385 13.041 49.089 0l259.633-259.848 1.437-1.115c13.484-13.04 12.484-35.385-1.001-48.858z" fill="" p-id="1888"></path></svg>